<?xml version="1.0" encoding="UTF-8" standalone="no"?>
<!-- Created with Inkscape (http://www.inkscape.org/) -->

<svg
   width="103mm"
   height="94mm"
   viewBox="0 0 103 94"
   version="1.1"
   id="svg11493"
   inkscape:version="1.2.1 (9c6d41e410, 2022-07-14)"
   sodipodi:docname="cognalite.svg"
   xmlns:inkscape="http://www.inkscape.org/namespaces/inkscape"
   xmlns:sodipodi="http://sodipodi.sourceforge.net/DTD/sodipodi-0.dtd"
   xmlns="http://www.w3.org/2000/svg"
   xmlns:svg="http://www.w3.org/2000/svg">
  <sodipodi:namedview
     id="namedview11495"
     pagecolor="#ffffff"
     bordercolor="#000000"
     borderopacity="0.25"
     inkscape:showpageshadow="2"
     inkscape:pageopacity="0.0"
     inkscape:pagecheckerboard="0"
     inkscape:deskcolor="#d1d1d1"
     inkscape:document-units="mm"
     showgrid="false"
     inkscape:zoom="1.4324916"
     inkscape:cx="298.43107"
     inkscape:cy="241.18815"
     inkscape:window-width="1920"
     inkscape:window-height="991"
     inkscape:window-x="-9"
     inkscape:window-y="-9"
     inkscape:window-maximized="1"
     inkscape:current-layer="layer1" />
  <defs
     id="defs11490" />
  <g
     inkscape:label="Layer 1"
     inkscape:groupmode="layer"
     id="layer1">
    <circle
       style="fill:#000000;stroke:#000000;stroke-width:0.932847;stroke-opacity:1"
       id="path12392"
       cx="20.238235"
       cy="43.320118"
       r="11.716287" />
    <rect
       style="fill:#000000;stroke:#000000;stroke-width:0.932847;stroke-opacity:1"
       id="rect13434"
       width="45.486763"
       height="4.9966516"
       x="5.7753601"
       y="47.070904"
       transform="rotate(-30.092847)" />
    <circle
       style="fill:#000000;stroke:#000000;stroke-width:0.932847;stroke-opacity:1"
       id="path13436"
       cx="73.392273"
       cy="14.287857"
       r="7.494977" />
    <rect
       style="fill:#000000;stroke:#000000;stroke-width:0.932847;stroke-opacity:1"
       id="rect13438"
       width="2.7567732"
       height="46.175949"
       x="-32.585449"
       y="36.26976"
       transform="rotate(-64.590079)" />
    <circle
       style="fill:#000000;stroke:#000000;stroke-width:0.932847;stroke-opacity:1"
       id="path13440"
       cx="61.934433"
       cy="63.306732"
       r="5.5135465" />
    <rect
       style="fill:#000000;stroke:#000000;stroke-width:0.632413;stroke-opacity:1"
       id="rect13442"
       width="25.534796"
       height="1.5976503"
       x="36.22871"
       y="82.032524"
       transform="matrix(0.90861903,-0.41762599,0.32778044,0.94475393,0,0)" />
    <circle
       style="fill:#000000;stroke:#000000;stroke-width:0.932847;stroke-opacity:1"
       id="path13444"
       cx="85.453148"
       cy="51.159698"
       r="2.4983258" />
    <g
       aria-label="CognaLite"
       transform="matrix(0.94149834,0,0,0.92427625,-37.826301,-9.4031669)"
       id="text17184"
       style="font-size:10.7877px;font-family:'Bauhaus 93';-inkscape-font-specification:'Bauhaus 93, Normal';stroke-width:3.39772">
      <path
         d="m 76.131657,97.04984 2.238658,0.05794 q -0.221232,1.738252 -1.206241,2.68639 -0.979743,0.94814 -2.559972,0.94814 -1.606567,0 -2.691658,-1.074558 -1.079823,-1.079824 -1.079823,-2.675855 0,-1.606567 1.100893,-2.702193 1.106161,-1.095625 2.723262,-1.095625 1.590765,0 2.654786,1.074556 0.73744,0.742707 1.042951,2.0701 l -2.291333,0.152756 q -0.384522,-1.179905 -1.459078,-1.179905 -0.684766,0 -1.132498,0.474069 -0.442464,0.474069 -0.442464,1.206242 0,0.705835 0.437197,1.169369 0.437196,0.458267 1.10616,0.458267 0.679499,0 1.079824,-0.405592 0.405592,-0.405593 0.479336,-1.164103 z"
         id="path255" />
      <path
         d="m 81.725669,95.200972 q 1.116695,0 1.912077,0.805917 0.80065,0.80065 0.80065,1.922612 0,1.137766 -0.811184,1.938415 -0.805917,0.800654 -1.94895,0.800654 -1.143033,0 -1.954217,-0.800654 -0.811185,-0.805917 -0.811185,-1.938415 0,-1.153567 0.811185,-1.938414 0.811184,-0.790115 2.001624,-0.790115 z m -0.05267,1.943682 q -0.316046,0 -0.537279,0.231767 -0.221232,0.2265 -0.221232,0.558348 0,0.326581 0.221232,0.558348 0.2265,0.231767 0.537279,0.231767 0.316045,0 0.537278,-0.231767 0.226499,-0.231767 0.226499,-0.558348 0,-0.331848 -0.221232,-0.558348 -0.221232,-0.231767 -0.542545,-0.231767 z"
         id="path257" />
      <path
         d="m 88.062389,98.398303 v 1.806727 q -0.426662,0.15802 -0.816452,0.15802 -0.953405,0 -1.617101,-0.721633 -0.658429,-0.721638 -0.658429,-1.76459 0,-1.12723 0.795382,-1.901543 0.795382,-0.774312 1.954217,-0.774312 0.61629,0 1.179905,0.247569 0.563615,0.247569 0.884928,0.663697 0.537278,0.690033 0.537278,2.001624 v 1.727717 q 0,1.406401 -0.800649,2.280801 -0.795383,0.87966 -2.075368,0.87966 -0.38979,0 -0.98501,-0.1949 v -1.79092 q 0.384522,0.21069 0.77958,0.21069 0.53201,0 0.821719,-0.35291 0.289709,-0.34765 0.289709,-1.000816 v -1.975287 q 0,-0.826987 -0.668964,-0.826987 -0.284441,0 -0.500406,0.221232 -0.210697,0.215965 -0.210697,0.500406 0,0.300244 0.200162,0.500406 0.20543,0.200163 0.505674,0.200163 0.200162,0 0.384522,-0.09481 z"
         id="path259" />
      <path
         d="m 96.1637,100.56322 h -1.97002 v -2.965567 q 0,-0.452999 -0.373987,-0.452999 -0.36872,0 -0.36872,0.452999 v 2.965567 h -1.97002 v -2.928695 q 0,-1.027149 0.679499,-1.727717 0.679498,-0.705836 1.664508,-0.705836 1.127231,0 1.806729,0.816452 0.532011,0.637359 0.532011,1.775124 z"
         id="path261" />
      <path
         d="m 100.23016,98.593198 v 2.038492 q -0.242306,0.0421 -0.442469,0.0421 -1.185172,0 -1.975287,-0.779577 -0.790114,-0.779579 -0.790114,-1.954217 0,-1.143032 0.795382,-1.938415 0.800649,-0.795382 1.943682,-0.795382 1.274716,0 2.006896,0.747976 0.73744,0.742707 0.73744,2.033228 v 2.575777 h -1.97002 v -2.433556 q 0,-0.416127 -0.20543,-0.663697 -0.20017,-0.247569 -0.542549,-0.247569 -0.310778,0 -0.537278,0.2265 -0.226499,0.226499 -0.226499,0.537278 0,0.32658 0.205429,0.537278 0.20543,0.210697 0.521476,0.210697 0.258101,0 0.479341,-0.136953 z"
         id="path263" />
      <path
         d="m 103.65399,93.373173 h 2.13858 v 4.271887 q 0,0.500406 0.15802,0.668964 0.16329,0.16329 0.63736,0.16329 h 0.11061 v 2.085906 h -0.56888 q -1.16937,0 -1.82253,-0.679501 -0.65316,-0.684767 -0.65316,-1.896276 z"
         id="path265" />
      <path
         d="m 109.24273,95.311588 v 5.251632 h -1.97002 v -5.251632 z m -0.97974,-2.344007 q 0.40032,0 0.69003,0.284441 0.29498,0.279174 0.29498,0.663697 0,0.410859 -0.27917,0.674231 -0.27391,0.263371 -0.70584,0.263371 -0.43193,0 -0.7111,-0.263371 -0.27391,-0.263372 -0.27391,-0.674231 0,-0.384523 0.28971,-0.663697 0.29497,-0.284441 0.6953,-0.284441 z"
         id="path267" />
      <path
         d="m 112.15562,93.373173 v 2.012159 h 0.88493 v 2.080635 h -0.88493 q 0,0.626825 0.1949,0.863859 0.20016,0.237035 0.7269,0.237035 v 2.070099 q -0.15275,0.005 -0.2265,0.005 -0.66896,0 -1.26418,-0.31078 -0.58995,-0.31078 -0.94814,-0.842789 -0.453,-0.679499 -0.453,-1.801461 v -4.314027 z"
         id="path269" />
      <path
         d="m 119.17184,98.256082 h -2.98663 q -0.0685,-0.226499 -0.0685,-0.416127 0,-0.263371 0.0948,-0.516208 h 1.00082 q -0.10535,-0.584685 -0.65843,-0.584685 -0.36872,0 -0.60049,0.316046 -0.23177,0.310778 -0.23177,0.800649 0,0.510941 0.22124,0.826987 0.22649,0.316046 0.58995,0.316046 0.29497,0 0.56888,-0.294976 l 1.12196,1.348466 q -0.78484,0.61629 -1.74352,0.61629 -1.16937,0 -1.96475,-0.784851 -0.79538,-0.784848 -0.79538,-1.943683 0,-1.153567 0.80065,-1.948949 0.80592,-0.795383 1.97529,-0.795383 1.14303,0 1.91734,0.77958 0.77958,0.774313 0.77958,1.912078 0,0.115883 -0.0211,0.36872 z"
         id="path271" />
    </g>
  </g>
</svg>
